<svg width="24" height="24" viewBox="0 0 24 24" fill="none" xmlns="http://www.w3.org/2000/svg">
<path d="M3.24994 6.50006H1.74994C0.784969 6.50006 0 5.71509 0 4.74994V3.24994C0 2.28497 0.784969 1.5 1.74994 1.5H3.24994C4.21509 1.5 5.00006 2.28497 5.00006 3.24994V4.74994C5.00006 5.71509 4.21509 6.50006 3.24994 6.50006ZM1.74994 3C1.68367 3.00005 1.62012 3.0264 1.57326 3.07326C1.5264 3.12012 1.50005 3.18367 1.5 3.24994V4.74994C1.50001 4.81624 1.52634 4.87982 1.57321 4.92672C1.62007 4.97362 1.68364 5 1.74994 5.00006H3.24994C3.31627 5.00004 3.37987 4.97368 3.42678 4.92678C3.47368 4.87987 3.50004 4.81627 3.50006 4.74994V3.24994C3.5 3.18364 3.47362 3.12007 3.42672 3.07321C3.37982 3.02634 3.31624 3.00001 3.24994 3H1.74994Z" fill="#404080"/>
<path d="M3.24994 14.4999H1.74994C0.784969 14.4999 0 13.7149 0 12.7499V11.2499C0 10.285 0.784969 9.5 1.74994 9.5H3.24994C4.21509 9.5 5.00006 10.285 5.00006 11.2499V12.7499C5.00006 13.7149 4.21509 14.4999 3.24994 14.4999ZM1.74994 11C1.68366 11 1.6201 11.0264 1.57323 11.0732C1.52637 11.1201 1.50002 11.1837 1.5 11.2499V12.7499C1.50002 12.8162 1.52637 12.8798 1.57323 12.9266C1.6201 12.9735 1.68366 12.9999 1.74994 12.9999H3.24994C3.31625 12.9999 3.37985 12.9736 3.42675 12.9267C3.47365 12.8798 3.50003 12.8162 3.50006 12.7499V11.2499C3.50003 11.1836 3.47365 11.12 3.42675 11.0732C3.37985 11.0263 3.31625 11 3.24994 11H1.74994Z" fill="#404080"/>
<path d="M3.24994 22.5001H1.74994C0.784969 22.5001 0 21.7151 0 20.7501V19.2501C0 18.285 0.784969 17.5 1.74994 17.5H3.24994C4.21509 17.5 5.00006 18.285 5.00006 19.2501V20.7501C5.00006 21.7151 4.21509 22.5001 3.24994 22.5001ZM1.74994 19C1.68364 19.0001 1.62007 19.0264 1.57321 19.0733C1.52634 19.1202 1.50001 19.1838 1.5 19.2501V20.7501C1.50005 20.8164 1.5264 20.8799 1.57326 20.9268C1.62012 20.9737 1.68367 21 1.74994 21.0001H3.24994C3.31624 21.0001 3.37982 20.9737 3.42672 20.9269C3.47362 20.88 3.5 20.8164 3.50006 20.7501V19.2501C3.50004 19.1838 3.47368 19.1202 3.42678 19.0733C3.37987 19.0264 3.31627 19 3.24994 19H1.74994Z" fill="#404080"/>
<path d="M23.25 4.75H7.74994C7.33594 4.75 6.99994 4.414 6.99994 4C6.99994 3.586 7.33594 3.25 7.74994 3.25H23.25C23.664 3.25 24 3.586 24 4C24 4.414 23.664 4.75 23.25 4.75Z" fill="#404080"/>
<path d="M23.25 12.75H7.74994C7.33594 12.75 6.99994 12.414 6.99994 12C6.99994 11.586 7.33594 11.25 7.74994 11.25H23.25C23.664 11.25 24 11.586 24 12C24 12.414 23.664 12.75 23.25 12.75Z" fill="#404080"/>
<path d="M23.25 20.75H7.74994C7.33594 20.75 6.99994 20.414 6.99994 20C6.99994 19.586 7.33594 19.25 7.74994 19.25H23.25C23.664 19.25 24 19.586 24 20C24 20.414 23.664 20.75 23.25 20.75Z" fill="#404080"/>
</svg>
