<svg width="25" height="25" viewBox="0 0 25 25" fill="none" xmlns="http://www.w3.org/2000/svg">
<path d="M22.0215 1.46484H16.1621V0H8.83789V1.46484H2.97852V25H22.0215V1.46484ZM10.3027 1.46484H14.6973V2.92969H10.3027V1.46484ZM20.5566 23.5352H4.44336V2.92969H8.83789V4.39453H16.1621V2.92969H20.5566V23.5352Z" fill="#0276FF"/>
<path d="M13.2324 5.9082H19.0918V7.37305H13.2324V5.9082Z" fill="#0276FF"/>
<path d="M13.2324 8.83789H16.1621V10.3027H13.2324V8.83789Z" fill="#0276FF"/>
<path d="M13.2324 11.7676H19.0918V13.2324H13.2324V11.7676Z" fill="#0276FF"/>
<path d="M13.2324 14.6973H16.1621V16.1621H13.2324V14.6973Z" fill="#0276FF"/>
<path d="M13.2324 17.627H19.0918V19.0918H13.2324V17.627Z" fill="#0276FF"/>
<path d="M13.2324 20.5566H16.1621V22.0215H13.2324V20.5566Z" fill="#0276FF"/>
<path d="M5.9082 10.3027H10.3027V5.9082H5.9082V10.3027ZM7.37305 7.37305H8.83789V8.83789H7.37305V7.37305Z" fill="#0276FF"/>
<path d="M5.9082 16.1621H10.3027V11.7676H5.9082V16.1621ZM7.37305 13.2324H8.83789V14.6973H7.37305V13.2324Z" fill="#0276FF"/>
<path d="M5.9082 22.0215H10.3027V17.627H5.9082V22.0215ZM7.37305 19.0918H8.83789V20.5566H7.37305V19.0918Z" fill="#0276FF"/>
</svg>
